# xmcd CD database file
# 
# Track frame offsets:
# 	183
# 	14375
# 	27403
# 	42370
# 	55613
# 	71285
# 	82595
# 	95205
# 	108128
# 	121580
# 	135743
# 	147933
# 	160230
# 	172598
# 	183885
# 	194650
# 	207243
# 	218803
# 
# Disc length: 3085 seconds
# 
# Submitted via: Nero 5.5.5.1
# 
# Revision: 0
# Processed by: cddbd v1.4PL0 Copyright (c) Steve Scherf et al.
#
DISCID=ea0c0b12
DTITLE=Jimmy Rogers - Left Me With A Broken Heart
DYEAR=1900
DGENRE=
TTITLE0=Today, Today Blues
TTITLE1=She Loves Another Man
TTITLE2=Chance To Love
TTITLE3=Left Me With A Broken Heart
TTITLE4=Mistreated Baby
TTITLE5=You're The One (early version)
TTITLE6=Crying Shame
TTITLE7=This Has Never Been
TTITLE8=Give Love Another Chance
TTITLE9=My Last Meal
TTITLE10=You Don't Know
TTITLE11=What Have I Done
TTITLE12=One Kiss
TTITLE13=Can't Keep From Worrying
TTITLE14=My Baby Don't Love Me No More
TTITLE15=I Can't Believe
TTITLE16=Trace Of You (alt take)
TTITLE17=Rock This House
EXTD=
EXTT0=
EXTT1=
EXTT2=
EXTT3=
EXTT4=
EXTT5=
EXTT6=
EXTT7=
EXTT8=
EXTT9=
EXTT10=
EXTT11=
EXTT12=
EXTT13=
EXTT14=
EXTT15=
EXTT16=
EXTT17=
PLAYORDER=
